# xmcd CD database file
#
# Track frame offsets:
#	187
#	21150
#	36150
#	57202
#	78992
#	105990
#	125970
#	143687
#	163242
#	182027
#	201027
#	220865
#	240290
#	267017
#
# Disc length: 3805 seconds
#
# Revision: 0
# Processed by: cddbd v1.4PL0 Copyright (c) Steve Scherf et al.
# Submitted via: CD2WAV32(EN) R3.19
#
DISCID=bc0edb0e
DTITLE=B'z - B'z The Best Pleasure
DYEAR=1900
DGENRE=
TTITLE0=LOVE PHANTOM
TTITLE1=love me, I love you
TTITLE2=Easy Come, Easy Go
TTITLE3=ZERO
TTITLE4=ALONE
TTITLE5=hadashi no megami
TTITLE6=ainomamaniwagamamanibokuhakimidakewokidutukenai
TTITLE7=LADY NAVIGATION
TTITLE8=taiyou no Komachi Angel
TTITLE9=BE THERE
TTITLE10=Don't Leave Me
TTITLE11=Bad Communication E.style
TTITLE12=Calling
TTITLE13=samayoeru aoi dangan
EXTD=
EXTT0=
EXTT1=
EXTT2=
EXTT3=
EXTT4=
EXTT5=
EXTT6=
EXTT7=
EXTT8=
EXTT9=
EXTT10=
EXTT11=
EXTT12=
EXTT13=
PLAYORDER=
